<?xml version="1.0" standalone="no"?>
<!DOCTYPE svg PUBLIC "-//W3C//DTD SVG 20010904//EN"
 "http://www.w3.org/TR/2001/REC-SVG-20010904/DTD/svg10.dtd">
<svg version="1.0" xmlns="http://www.w3.org/2000/svg"
 width="379.000000pt" height="379.000000pt" viewBox="0 0 379.000000 379.000000"
 preserveAspectRatio="xMidYMid meet">
<metadata>
Created by potrace 1.16, written by Peter Selinger 2001-2019
</metadata>
<g transform="translate(0.000000,379.000000) scale(0.100000,-0.100000)"
fill="#000000" stroke="none">
<path d="M1698 3745 c-60 -15 -158 -62 -194 -92 -12 -10 -29 -34 -39 -53 -10
-19 -26 -51 -36 -71 -12 -24 -35 -44 -71 -64 -170 -91 -280 -194 -335 -312
-33 -72 -35 -81 -31 -157 3 -53 12 -97 26 -126 70 -151 84 -196 98 -303 8 -60
17 -114 20 -119 3 -5 5 -58 5 -119 -1 -78 -6 -120 -17 -142 l-15 -32 20 25
c22 28 24 34 50 227 10 78 22 147 26 154 5 6 9 26 11 43 6 51 26 120 41 137 8
10 23 14 39 11 28 -5 27 -28 -2 -25 -18 1 -18 1 -2 -11 15 -11 16 -19 7 -47
-5 -19 -12 -60 -15 -93 -5 -51 -3 -60 15 -73 12 -8 21 -22 21 -32 0 -10 3 -21
6 -24 13 -12 9 -87 -3 -87 -8 0 -13 -15 -13 -40 0 -36 -2 -40 -25 -40 -14 0
-25 -4 -25 -10 0 -5 5 -10 10 -10 6 0 10 -7 10 -15 0 -8 -4 -15 -10 -15 -5 0
-10 7 -10 15 0 8 -6 15 -14 15 -7 0 -19 -7 -26 -15 -7 -8 -19 -15 -27 -15 -11
0 -13 -7 -8 -32 4 -18 9 -47 10 -65 2 -31 0 -33 -29 -34 -29 0 -29 -1 -8 -9
14 -6 22 -18 22 -32 0 -17 2 -20 9 -9 7 11 12 4 20 -24 10 -36 7 -66 -3 -34
-13 40 -14 42 -15 20 -1 -27 46 -216 61 -245 7 -13 6 -21 -3 -27 -11 -7 -10
-9 3 -9 9 0 18 6 20 12 3 7 11 -8 20 -32 12 -35 13 -52 4 -77 -15 -43 -31 -56
-22 -18 l8 30 -31 -29 c-36 -34 -40 -51 -11 -43 21 5 27 -7 9 -19 -6 -3 -16
-1 -22 5 -19 19 -52 12 -78 -16 -13 -16 -23 -31 -21 -36 1 -4 -3 -6 -10 -5
-14 3 -17 -17 -7 -55 5 -16 4 -25 -2 -22 -5 4 -9 1 -9 -4 0 -6 -9 -11 -19 -11
-11 0 -23 -5 -26 -11 -5 -7 -13 -5 -25 6 -9 8 -24 13 -32 10 -17 -7 -35 13
-35 38 0 24 43 34 65 14 11 -11 22 -13 32 -7 8 5 17 7 21 4 4 -2 10 3 13 11 4
13 2 13 -14 5 -18 -10 -19 -9 -4 27 15 34 15 36 0 24 -9 -7 -16 -10 -16 -6 0
4 -9 -3 -19 -16 l-19 -24 -11 28 c-9 23 -14 26 -29 18 -27 -15 -45 -38 -33
-45 13 -8 8 -36 -9 -46 -8 -5 -27 -6 -42 -3 -25 5 -30 2 -41 -26 -6 -17 -15
-31 -20 -31 -5 0 -7 6 -4 13 3 8 1 20 -3 28 -15 23 -45 -15 -58 -72 -20 -84
-15 -150 20 -256 37 -116 48 -133 44 -67 -5 70 -17 124 -27 124 -5 0 -6 7 -3
15 4 9 1 15 -7 15 -9 0 -10 3 -2 11 6 6 21 9 34 7 20 -3 26 -15 45 -90 31
-121 33 -152 11 -156 -10 -2 -26 0 -35 4 -9 4 -24 8 -32 8 -8 1 -18 15 -23 31
-5 17 -17 46 -26 64 -9 19 -15 39 -13 45 2 5 -2 12 -8 16 -6 4 -12 16 -13 28
0 11 -5 18 -9 16 -4 -3 -8 0 -8 5 0 6 4 11 9 11 5 0 7 9 4 20 -3 11 -9 17 -14
14 -5 -3 -9 7 -9 21 0 14 4 24 9 21 10 -6 31 39 36 75 1 13 8 37 14 53 10 24
9 27 -4 22 -26 -9 -17 15 18 48 55 54 74 78 54 71 -24 -10 -85 -88 -110 -142
-18 -39 -22 -66 -22 -143 0 -93 1 -97 48 -195 26 -55 61 -117 78 -137 20 -26
32 -55 38 -95 5 -32 23 -146 40 -253 17 -107 34 -214 37 -236 6 -36 9 -41 27
-36 11 3 18 1 15 -4 -3 -5 5 -25 18 -44 13 -19 24 -31 24 -27 0 4 19 -6 42
-23 22 -16 49 -30 58 -30 9 0 32 -8 51 -17 18 -9 48 -16 66 -15 28 2 33 -1 33
-19 0 -19 -4 -20 -49 -14 -40 5 -49 4 -55 -10 -5 -14 -2 -16 21 -11 19 4 23 4
14 -3 -11 -7 -10 -11 7 -20 28 -15 35 -14 28 4 -4 11 1 15 17 14 12 0 16 -3
10 -6 -7 -2 -13 -9 -13 -14 0 -6 4 -8 9 -5 5 3 12 -5 15 -19 6 -23 11 -25 66
-25 62 0 68 6 50 40 -13 25 3 34 30 18 14 -9 20 -20 17 -35 -4 -22 -2 -23 85
-23 86 0 89 1 83 21 -5 16 -3 20 6 17 8 -3 13 -13 13 -22 -2 -14 22 -16 243
-16 217 0 244 2 233 15 -7 8 -19 15 -26 15 -8 0 -14 10 -14 25 0 14 2 25 5 25
3 0 30 -18 60 -40 l54 -40 346 0 c192 0 344 4 341 9 -8 12 37 101 71 140 37
41 68 40 69 -4 1 -17 4 -40 8 -52 6 -17 1 -29 -18 -47 -14 -13 -26 -28 -26
-35 0 -14 89 -15 125 -1 17 7 24 7 20 0 -4 -6 43 -10 131 -10 82 0 134 4 128
9 -5 5 -27 18 -48 30 -22 11 -43 25 -46 32 -6 8 -13 8 -28 0 -11 -6 -33 -11
-48 -11 -15 0 -33 -8 -40 -17 -7 -10 -15 -15 -18 -12 -3 3 17 31 46 63 l51 57
-33 34 c-27 28 -31 37 -21 49 10 12 9 17 -8 25 -13 7 -22 8 -26 1 -3 -5 -15
-10 -25 -10 -10 0 -20 -5 -22 -11 -2 -6 -17 -12 -33 -13 -17 -1 -37 -5 -45
-10 -8 -4 1 6 20 24 49 44 52 46 85 57 22 7 30 16 31 34 0 14 4 31 9 38 6 11
4 13 -8 8 -11 -4 -26 3 -42 20 l-24 27 -26 -24 c-14 -13 -25 -19 -25 -14 0 6
16 24 35 41 31 28 50 63 25 48 -6 -3 -10 -2 -10 3 0 6 12 13 26 16 19 5 31 2
45 -12 16 -18 22 -19 61 -7 24 7 63 17 88 22 55 12 223 8 249 -7 11 -5 37 -10
59 -10 23 0 49 -8 63 -18 38 -29 59 -34 59 -14 0 24 -40 58 -50 42 -5 -9 -16
-7 -40 7 -79 44 -95 51 -104 42 -15 -14 -60 -11 -92 6 -38 19 -70 19 -78 -1
-5 -14 -16 -15 -64 -10 -152 17 -172 18 -172 7 0 -27 -119 -59 -127 -33 -3 7
1 10 9 7 11 -5 14 1 10 24 -6 40 -27 58 -47 41 -9 -8 -15 -9 -15 -2 0 6 4 13
10 17 10 6 -23 45 -39 45 -17 0 0 38 30 66 16 15 30 26 32 23 2 -2 11 -16 20
-31 18 -28 41 -36 52 -18 4 6 -1 7 -11 3 -12 -4 -15 -3 -10 5 4 7 3 12 -1 12
-5 0 -14 9 -21 20 -10 17 -9 23 7 39 22 22 58 86 43 77 -5 -3 -12 3 -15 13 -4
17 -10 18 -38 11 -19 -4 -42 -11 -51 -15 -35 -14 -20 33 20 61 55 41 60 46 30
35 -22 -8 -28 -8 -28 4 0 7 8 16 19 20 10 3 26 14 36 25 10 11 28 20 40 20 12
0 34 9 49 21 21 16 34 19 65 14 32 -5 40 -3 43 10 2 14 7 13 31 -9 15 -14 34
-23 42 -20 8 4 32 -1 53 -9 l37 -15 0 34 c0 22 -4 33 -11 30 -7 -3 -22 6 -35
20 -14 15 -18 24 -9 24 23 0 -31 49 -54 50 -12 0 -32 1 -46 1 -14 0 -47 -2
-75 -6 -46 -6 -49 -5 -31 9 11 9 17 19 13 23 -4 3 -15 -1 -25 -10 -10 -10 -23
-17 -29 -17 -17 0 -73 -32 -99 -57 -12 -13 -29 -20 -36 -18 -8 3 -25 -6 -38
-20 -13 -14 -29 -25 -37 -25 -7 0 -13 -4 -13 -10 0 -5 -7 -10 -15 -10 -24 0
-18 11 31 58 30 28 51 58 59 87 14 46 10 62 -12 44 -10 -9 -13 -8 -14 2 0 8
-5 3 -10 -10 -6 -15 -6 -28 1 -36 7 -8 3 -15 -14 -23 -19 -9 -27 -8 -36 4 -16
18 -35 18 -54 -1 -19 -19 -26 -19 -26 1 0 8 4 13 9 9 19 -11 21 14 3 27 -29
20 -36 54 -15 67 16 9 16 10 1 11 -9 0 -20 5 -23 10 -10 16 5 50 22 50 13 0
13 3 3 15 -7 8 -18 15 -24 15 -7 0 -28 16 -47 36 -18 20 -49 43 -67 51 -24 10
-32 19 -28 29 3 9 6 20 6 25 0 5 10 9 23 9 34 0 40 11 17 27 -15 11 -20 24
-18 51 1 20 7 40 12 44 6 4 2 10 -9 14 -35 13 -48 26 -33 35 9 6 8 9 -6 9 -32
0 -125 51 -173 94 l-45 41 26 69 c32 84 43 98 68 90 11 -3 30 -3 44 0 22 6 24
11 24 74 0 99 25 222 58 289 16 32 31 76 34 98 7 52 90 248 129 302 16 23 36
58 44 77 21 51 19 143 -6 212 -11 32 -33 100 -48 149 -48 156 -81 203 -231
329 -158 132 -232 171 -429 222 -123 32 -354 42 -443 19z m-585 -2544 c71 -36
132 -85 151 -119 31 -57 35 -73 36 -164 2 -142 4 -133 -22 -116 -13 8 -36 18
-51 22 -51 12 -154 64 -160 81 -6 14 -21 157 -30 283 -1 25 2 42 8 42 6 0 37
-13 68 -29z m1675 -101 c13 0 26 -30 23 -53 -1 -10 3 -16 11 -15 9 2 12 -7 11
-26 l-2 -29 22 21 c12 12 28 18 34 14 14 -9 6 -23 -21 -38 -11 -6 -24 -19 -30
-29 -6 -11 -17 -25 -25 -31 -8 -6 -11 -16 -8 -21 4 -6 -1 -10 -11 -9 -11 0
-18 -7 -20 -22 -2 -12 -12 -27 -23 -32 -10 -6 -19 -19 -19 -30 0 -24 -45 -74
-59 -65 -6 3 -11 0 -11 -8 0 -8 -7 -17 -15 -21 -8 -3 -15 -4 -15 -3 0 10 45
95 58 110 14 16 14 20 -2 47 -13 23 -14 34 -6 50 9 16 15 18 30 10 10 -6 22
-15 25 -20 11 -18 24 -11 41 21 8 17 11 28 6 25 -12 -7 -47 43 -37 52 4 4 12
-1 20 -11 11 -16 13 -16 19 -1 4 11 0 18 -14 21 -11 3 -20 13 -20 22 0 10 -3
21 -7 25 -12 11 -12 39 -1 60 10 18 12 18 23 3 7 -9 17 -17 23 -17z m-463
-310 c3 -5 0 -10 -7 -11 -9 0 -10 -2 -1 -5 7 -3 9 -13 6 -22 -3 -9 -3 -14 1
-10 4 3 9 14 10 25 4 29 21 11 17 -19 -1 -17 2 -28 9 -28 9 0 10 -10 6 -32 -9
-47 4 -27 19 29 7 26 14 42 14 35 1 -7 6 -10 13 -6 8 5 9 0 5 -17 -4 -13 -12
-72 -19 -131 -7 -60 -16 -108 -20 -108 -4 0 -8 -13 -8 -30 0 -24 -4 -30 -21
-30 -13 0 -18 4 -13 12 4 7 3 8 -4 4 -13 -8 -47 7 -77 34 -11 10 -49 34 -85
53 -36 20 -64 41 -62 48 2 10 0 10 -12 0 -17 -14 -21 -8 -25 35 -1 18 4 36 13
43 9 7 13 17 10 22 -8 13 38 70 53 65 6 -3 15 4 18 15 4 13 12 18 22 15 8 -3
23 -6 33 -6 10 0 21 -10 25 -22 6 -20 8 -20 12 -5 2 9 9 17 15 17 6 0 8 3 5 7
-4 3 1 12 11 19 21 16 29 17 37 4z m-1263 -237 c10 -24 170 -62 204 -49 14 5
12 9 -7 25 l-24 19 28 -1 c25 -2 27 -5 27 -44 0 -32 -4 -43 -15 -43 -8 0 -15
7 -15 15 0 8 -8 15 -17 15 -22 0 -53 -29 -47 -45 6 -15 -37 -28 -61 -19 -13 6
-14 9 -3 15 8 6 0 6 -19 3 -26 -5 -33 -3 -33 10 0 19 -26 22 -34 4 -3 -7 -4 8
-2 34 2 26 -1 51 -7 57 -8 8 -6 11 5 11 9 0 18 -3 20 -7z m1810 -153 c0 -8 1
-20 1 -27 0 -6 5 -9 12 -7 25 10 24 -26 -1 -53 -46 -49 -84 -143 -79 -193 3
-33 2 -39 -4 -24 -16 38 -3 233 21 311 8 29 11 31 29 20 10 -6 20 -19 21 -27z
m-763 -164 c15 -8 46 -30 67 -48 22 -18 57 -42 77 -53 44 -24 53 -69 15 -81
-13 -4 -24 -2 -26 4 -2 6 -9 9 -17 6 -15 -6 -57 25 -49 37 5 9 -42 59 -56 59
-5 0 -14 8 -19 18 -8 13 -13 14 -19 4 -6 -8 -9 1 -10 28 -2 45 -2 45 37 26z"/>
<path d="M3210 435 c0 -27 28 -85 44 -91 20 -8 32 -64 16 -74 -10 -6 -8 -15 9
-36 12 -16 18 -30 13 -32 -6 -2 6 -19 26 -38 30 -29 41 -34 66 -28 51 11 207
8 215 -4 4 -7 12 -8 21 -2 8 5 27 6 42 3 23 -5 27 -3 22 11 -3 9 -10 16 -16
16 -5 0 -6 4 -3 10 4 6 14 4 28 -5 12 -8 39 -21 60 -30 l37 -15 0 71 c0 61 -2
70 -17 67 -9 -2 -27 7 -40 19 -15 16 -33 23 -60 22 -21 0 -32 -3 -25 -6 6 -2
12 -19 11 -36 0 -18 -3 -25 -6 -17 -8 20 -29 40 -43 40 -6 0 -24 10 -40 22
-25 18 -33 20 -55 10 -34 -16 -32 -31 15 -75 36 -34 52 -67 32 -67 -5 0 -27 9
-51 21 -29 13 -41 25 -37 35 3 8 -1 14 -9 14 -8 0 -15 -6 -15 -12 0 -7 -10 2
-22 20 -24 33 -60 52 -66 34 -2 -7 -15 -4 -35 6 -18 9 -33 17 -33 17 -1 0 -5
10 -9 23 -5 19 -2 24 24 33 18 6 31 18 31 27 0 15 2 15 10 2 9 -13 10 -13 10
0 0 8 -4 20 -8 25 -9 12 -55 15 -62 4 -3 -5 -23 0 -43 11 -31 17 -37 18 -37 5z"/>
</g>
</svg>
